<?xml version="1.0" encoding="utf-8"?>
<!-- Generator: Adobe Illustrator 19.2.0, SVG Export Plug-In . SVG Version: 6.00 Build 0)  -->
<svg version="1.1" id="Layer_1" xmlns="http://www.w3.org/2000/svg" xmlns:xlink="http://www.w3.org/1999/xlink" x="0px" y="0px"
	 viewBox="0 0 20.1 37.7" style="enable-background:new 0 0 20.1 37.7;" xml:space="preserve">
<style type="text/css">
	.st0{fill-rule:evenodd;clip-rule:evenodd;fill:none;stroke:#000000;stroke-linecap:round;stroke-miterlimit:10;}
</style>
<path class="st0" d="M15.8,6.7c1.1,0,2.3,0,3.4,0c0.1,0,0.3,0,0.5,0V0.8c-0.6-0.1-1.2-0.1-1.9-0.2c-1.2-0.1-2.3-0.1-3.5-0.1
	C12.5,0.5,10.8,1,9.3,2C7.6,3.2,6.7,5,6.4,7C6.2,7.8,6.2,8.7,6.2,9.5c0,1.3,0,2.7,0,4V14H0.5v6.6h5.6v16.6H13V20.6h5.6
	c0.3-2.2,0.6-4.4,0.9-6.6c-0.5,0-0.9,0-1.3,0c-1.6,0-5.3,0-5.3,0s0-3.3,0.1-4.7C13.1,7.3,14.2,6.7,15.8,6.7z"/>
</svg>
