<?xml version="1.0" encoding="utf-8"?>
<!-- Generator: Adobe Illustrator 19.2.0, SVG Export Plug-In . SVG Version: 6.00 Build 0)  -->
<svg version="1.1" id="Layer_1" xmlns="http://www.w3.org/2000/svg" xmlns:xlink="http://www.w3.org/1999/xlink" x="0px" y="0px"
	 viewBox="0 0 26.9 26.9" style="enable-background:new 0 0 26.9 26.9;" xml:space="preserve">
<style type="text/css">
	.st0{fill:none;stroke:#000000;stroke-linecap:round;stroke-miterlimit:10;}
</style>
<path class="st0" d="M26.2,7c-0.2-1.7-0.8-3.2-2.1-4.4c-1.3-1.3-3-1.8-4.7-1.9c-3-0.2-10.3-0.3-12.8,0.1C3.6,1.3,1.7,3,0.9,5.8
	C0.3,8,0.4,18.2,0.8,20.4c0.5,3,2.3,4.9,5.2,5.6c2,0.5,12.1,0.5,14.3,0.1c3-0.5,4.9-2.2,5.7-5.2C26.6,18.7,26.4,9,26.2,7z"/>
<path class="st0" d="M13.5,6.8c-3.7,0-6.6,3-6.6,6.6c0,3.7,3,6.6,6.6,6.6c3.7,0,6.7-3,6.7-6.6C20.1,9.8,17.1,6.8,13.5,6.8z"/>
<path class="st0" d="M22.5,5.9c0,0.9-0.7,1.5-1.6,1.5s-1.5-0.7-1.6-1.5c0-0.9,0.7-1.6,1.6-1.6C21.8,4.3,22.5,5,22.5,5.9z"/>
</svg>
