<?xml version="1.0" encoding="UTF-8"?>
<svg width="14px" height="17px" viewBox="0 0 14 17" version="1.1" xmlns="http://www.w3.org/2000/svg" xmlns:xlink="http://www.w3.org/1999/xlink">
    <!-- Generator: Sketch 57.1 (83088) - https://sketch.com -->
    <title>Combined Shape</title>
    <desc>Created with Sketch.</desc>
    <g id="Page-1" stroke="none" stroke-width="1" fill="none" fill-rule="evenodd">
        <g id="Contact" transform="translate(-1020.000000, -299.000000)" stroke="#000000">
            <g id="Group-2" transform="translate(0.000000, 128.000000)">
                <g id="Group-Copy" transform="translate(1018.929607, 58.000000)">
                    <path d="M8.07039289,113.5 C4.48054202,113.5 1.57039289,116.410149 1.57039289,120 C1.57039289,124.180903 4.89364958,129.417901 8.07039289,129.417901 C11.2471362,129.417901 14.5703929,124.180903 14.5703929,120 C14.5703929,116.410149 11.6602438,113.5 8.07039289,113.5 Z M8.07039289,118.1 C9.11973392,118.1 9.97039289,118.950659 9.97039289,120 C9.97039289,121.049341 9.11973392,121.9 8.07039289,121.9 C7.02105187,121.9 6.17039289,121.049341 6.17039289,120 C6.17039289,118.950659 7.02105187,118.1 8.07039289,118.1 Z" id="Combined-Shape"></path>
                </g>
            </g>
        </g>
    </g>
</svg>