<?xml version="1.0" encoding="UTF-8"?>
<svg width="26px" height="26px" viewBox="0 0 26 26" version="1.1" xmlns="http://www.w3.org/2000/svg" xmlns:xlink="http://www.w3.org/1999/xlink">
    <!-- Generator: Sketch 57.1 (83088) - https://sketch.com -->
    <title>расписание</title>
    <desc>Created with Sketch.</desc>
    <g id="Page-1" stroke="none" stroke-width="1" fill="none" fill-rule="evenodd">
        <g id="Schedule-week-open-pop-up-menu" transform="translate(-1283.000000, -35.000000)" stroke="#000000">
            <g id="шапка">
                <g id="расписание" transform="translate(1283.000000, 35.000000)">
                    <g transform="translate(1.000000, 1.000000)" id="Group-5">
                        <g>
                            <g id="Group-10">
                                <g id="Group-6">
                                    <rect id="Rectangle" x="0" y="0" width="6" height="6"></rect>
                                    <rect id="Rectangle-Copy-2" x="6" y="0" width="6" height="6"></rect>
                                    <rect id="Rectangle-Copy-3" x="12" y="0" width="6" height="6"></rect>
                                    <rect id="Rectangle-Copy-4" x="18" y="0" width="6" height="6"></rect>
                                </g>
                                <g id="Group-6-Copy" transform="translate(0.000000, 6.000000)">
                                    <rect id="Rectangle" x="0" y="0" width="6" height="6"></rect>
                                    <rect id="Rectangle-Copy-2" x="6" y="0" width="6" height="6"></rect>
                                    <rect id="Rectangle-Copy-3" x="12" y="0" width="6" height="6"></rect>
                                    <rect id="Rectangle-Copy-4" x="18" y="0" width="6" height="6"></rect>
                                </g>
                                <g id="Group-6-Copy-2" transform="translate(0.000000, 12.000000)">
                                    <rect id="Rectangle" x="0" y="0" width="6" height="6"></rect>
                                    <rect id="Rectangle-Copy-2" x="6" y="0" width="6" height="6"></rect>
                                    <rect id="Rectangle-Copy-3" x="12" y="0" width="6" height="6"></rect>
                                    <rect id="Rectangle-Copy-4" x="18" y="0" width="6" height="6"></rect>
                                </g>
                                <g id="Group-6-Copy-3" transform="translate(0.000000, 18.000000)">
                                    <rect id="Rectangle" x="0" y="0" width="6" height="6"></rect>
                                    <rect id="Rectangle-Copy-2" x="6" y="0" width="6" height="6"></rect>
                                    <rect id="Rectangle-Copy-3" x="12" y="0" width="6" height="6"></rect>
                                    <rect id="Rectangle-Copy-4" x="18" y="0" width="6" height="6"></rect>
                                </g>
                            </g>
                        </g>
                    </g>
                </g>
            </g>
        </g>
    </g>
</svg>