<?xml version="1.0" encoding="UTF-8"?>
<svg width="16px" height="16px" viewBox="0 0 16 16" version="1.1" xmlns="http://www.w3.org/2000/svg" xmlns:xlink="http://www.w3.org/1999/xlink">
    <!-- Generator: Sketch 57.1 (83088) - https://sketch.com -->
    <title>whatsapp-logo</title>
    <desc>Created with Sketch.</desc>
    <g id="Page-1" stroke="none" stroke-width="1" fill="none" fill-rule="evenodd">
        <g id="Schedule-week-open-menu" transform="translate(-1132.000000, -957.000000)" fill-rule="nonzero">
            <g id="Group-10" transform="translate(960.000000, 96.000000)">
                <g id="Group-5" transform="translate(48.000000, 862.000000)">
                    <g id="whatsapp-logo" transform="translate(124.000000, 0.000000)">
                        <path d="M7.65451111,0.318822222 C3.78531111,0.318822222 0.638044444,3.4421 0.638044444,7.28107778 C0.638044444,8.80446667 1.13463333,10.2152778 1.97462222,11.3629667 L1.09798889,13.9486667 L3.79437778,13.0916778 C4.90221111,13.8190889 6.22934444,14.2433333 7.6547,14.2433333 C11.5233333,14.2433333 14.6711667,11.1204333 14.6711667,7.28145556 C14.6711667,3.44247778 11.5235222,0.318822222 7.65451111,0.318822222 Z" id="WhatsApp-path" stroke="#000000"></path>
                        <path d="M11.8688111,9.18828889 C11.8172444,9.10385556 11.6810556,9.05285556 11.4766778,8.95142222 C11.2719222,8.84998889 10.2659,8.35868889 10.0789,8.29125556 C9.89133333,8.22363333 9.75457778,8.18963333 9.61838889,8.39268889 C9.4822,8.59593333 9.09006667,9.05285556 8.9705,9.18828889 C8.85112222,9.3241 8.73193333,9.3411 8.52717778,9.23947778 C8.3228,9.13804444 7.66376667,8.92346667 6.88233333,8.23213333 C6.2743,7.69417778 5.86365556,7.03004444 5.74427778,6.82661111 C5.62508889,6.62355556 5.73181111,6.51381111 5.834,6.41275556 C5.92617778,6.32171111 6.03875556,6.1757 6.14094444,6.05726667 C6.24351111,5.93864444 6.27751111,5.85421111 6.34532222,5.71858889 C6.41388889,5.58315556 6.3797,5.46472222 6.32832222,5.36291111 C6.27732222,5.26147778 5.86781111,4.26263333 5.69743333,3.85614444 C5.52705556,3.45003333 5.35686667,3.51765556 5.2373,3.51765556 C5.11811111,3.51765556 4.98154444,3.50065556 4.84516667,3.50065556 C4.70878889,3.50065556 4.48703333,3.55146667 4.29946667,3.75452222 C4.11208889,3.95776667 3.58376667,4.44887778 3.58376667,5.44753333 C3.58376667,6.44637778 4.31646667,7.41141111 4.41903333,7.54665556 C4.52122222,7.6819 5.83381111,9.79821111 7.91347778,10.611 C9.99333333,11.4234111 9.99333333,11.1523556 10.3684667,11.1183556 C10.7432222,11.0845444 11.5784889,10.6274333 11.7496222,10.1537 C11.9196222,9.67921111 11.9196222,9.27291111 11.8688111,9.18828889 Z" id="WhatsApp-path" fill="#000000"></path>
                    </g>
                </g>
            </g>
        </g>
    </g>
</svg>