<?xml version="1.0" encoding="utf-8"?>
<!-- Generator: Adobe Illustrator 19.2.0, SVG Export Plug-In . SVG Version: 6.00 Build 0)  -->
<svg version="1.1" id="Layer_1" xmlns="http://www.w3.org/2000/svg" xmlns:xlink="http://www.w3.org/1999/xlink" x="0px" y="0px"
	 viewBox="0 0 30.9 22" style="enable-background:new 0 0 30.9 22;" xml:space="preserve">
<style type="text/css">
	.st0{fill-rule:evenodd;clip-rule:evenodd;fill:none;stroke:#000000;stroke-linecap:round;stroke-miterlimit:10;}
</style>
<path class="st0" d="M3.6,20.9c-1.1-0.4-1.9-1.1-2.3-2.2C0.3,15.9,0,4.5,1.9,2.2C2.6,1.4,3.4,1,4.4,0.9c5.2-0.6,21.1-0.5,22.9,0.2
	c1.1,0.4,1.8,1.1,2.3,2.2c1.1,2.8,1.1,13.1-0.1,15.8c-0.3,0.7-0.9,1.3-1.6,1.6C25.9,21.7,6.1,21.7,3.6,20.9z M11.8,15.5
	c3.1-1.6,6.2-3.2,9.3-4.8C18,9,14.9,7.4,11.8,5.8C11.8,9.1,11.8,12.3,11.8,15.5z"/>
</svg>
